HIERARCHY
ROOT Hips
{
	OFFSET -0.001795 -0.223333 0.028219
	CHANNELS 6 Xposition Yposition Zposition Zrotation Yrotation Xrotation 
	JOINT LeftUpLeg
	{
		OFFSET 0.069520 -0.091406 -0.006815
		CHANNELS 3 Zrotation Yrotation Xrotation
		JOINT LeftLeg
		{
			OFFSET 0.034277 -0.375199 -0.004496
			CHANNELS 3 Zrotation Yrotation Xrotation
			JOINT LeftFoot
			{
				OFFSET -0.013596 -0.397961 -0.043693
				CHANNELS 3 Zrotation Yrotation Xrotation
				JOINT LeftToe
				{
					OFFSET 0.026358 -0.055791 0.119288
					CHANNELS 3 Zrotation Yrotation Xrotation
					End Site
					{
						OFFSET 0.000000 0.000000 0.000000
					}
				}
			}
		}
	}
	JOINT RightUpLeg
	{
		OFFSET -0.067670 -0.090522 -0.004320
		CHANNELS 3 Zrotation Yrotation Xrotation
		JOINT RightLeg
		{
			OFFSET -0.038290 -0.382569 -0.008850
			CHANNELS 3 Zrotation Yrotation Xrotation
			JOINT RightFoot
			{
				OFFSET 0.015774 -0.398415 -0.042312
				CHANNELS 3 Zrotation Yrotation Xrotation
				JOINT RightToe
				{
					OFFSET -0.025372 -0.048144 0.123348
					CHANNELS 3 Zrotation Yrotation Xrotation
					End Site
					{
						OFFSET 0.000000 0.000000 0.000000
					}
				}
			}
		}
	}
	JOINT Spine
	{
		OFFSET -0.002533 0.108963 -0.026696
		CHANNELS 3 Zrotation Yrotation Xrotation
		JOINT Spine1
		{
			OFFSET 0.005487 0.135180 0.001092
			CHANNELS 3 Zrotation Yrotation Xrotation
			JOINT Spine2
			{
				OFFSET 0.001457 0.052922 0.025425
				CHANNELS 3 Zrotation Yrotation Xrotation
				JOINT Neck
				{
					OFFSET -0.002778 0.213870 -0.042857
					CHANNELS 3 Zrotation Yrotation Xrotation
					JOINT Head
					{
						OFFSET 0.005152 0.064970 0.051349
						CHANNELS 3 Zrotation Yrotation Xrotation
						End Site
						{
							OFFSET 0.000000 0.000000 0.000000
						}
					}
				}
				JOINT LeftShoulder
				{
					OFFSET 0.078845 0.121749 -0.034090
					CHANNELS 3 Zrotation Yrotation Xrotation
					JOINT LeftArm
					{
						OFFSET 0.090977 0.030469 -0.008868
						CHANNELS 3 Zrotation Yrotation Xrotation
						JOINT LeftForeArm
						{
							OFFSET 0.259612 -0.012772 -0.027456
							CHANNELS 3 Zrotation Yrotation Xrotation
							JOINT LeftHand
							{
								OFFSET 0.249234 0.008986 -0.001171
								CHANNELS 3 Zrotation Yrotation Xrotation
								End Site
								{
									OFFSET 0.000000 0.000000 0.000000
								}
							}
						}
					}
				}
				JOINT RightShoulder
				{
					OFFSET -0.081759 0.118833 -0.038615
					CHANNELS 3 Zrotation Yrotation Xrotation
					JOINT RightArm
					{
						OFFSET -0.096012 0.032551 -0.009143
						CHANNELS 3 Zrotation Yrotation Xrotation
						JOINT RightForeArm
						{
							OFFSET -0.253742 -0.013329 -0.021401
							CHANNELS 3 Zrotation Yrotation Xrotation
							JOINT RightHand
							{
								OFFSET -0.255298 0.007772 -0.005559
								CHANNELS 3 Zrotation Yrotation Xrotation
								End Site
								{
									OFFSET 0.000000 0.000000 0.000000
								}
							}
						}
					}
				}
			}
		}
	}
}
MOTION
Frames: 15
Frame Time: 0.050000
0.000000 0.956022 0.000000 -0.869148 -0.653513 6.331795 -0.379121 -0.037302 -0.499174 0.895256 0.312051 -9.658915 0.123958 3.605938 8.504672 0.000000 0.000000 0.000000 1.597979 0.025352 -0.810332 -0.935829 -0.265027 -7.596521 6.630548 9.492728 9.651584 0.000000 0.000000 0.000000 5.381069 0.204404 -4.175243 -0.644606 0.270201 1.944700 -2.000141 1.254833 5.688814 6.003865 -2.012821 -18.638836 0.000000 0.000000 0.000000 -25.998260 -7.386690 1.561625 -28.741010 7.042156 -4.615210 14.724759 -9.425464 -0.818803 0.000000 0.000000 0.000000 21.168773 4.513524 0.957194 30.646061 -4.515033 -3.967324 -10.546127 22.853824 -1.124363 0.000000 0.000000 0.000000 
-0.000774 0.954026 0.001958 -1.112821 -1.187968 6.703911 -0.012896 -0.058663 -0.629850 0.738191 0.341999 -10.208207 0.894951 5.003496 8.786533 0.000000 0.000000 0.000000 1.674135 0.112426 -1.629077 -0.779434 -0.251911 -7.203495 6.734509 10.117393 8.978007 0.000000 0.000000 0.000000 6.395939 0.164388 -3.764486 -1.334553 0.608474 2.648255 -2.846877 2.146205 4.118189 7.907841 -2.635451 -20.797612 0.000000 0.000000 0.000000 -24.672371 -8.848257 2.143780 -30.932835 7.950570 -5.048415 16.858182 -6.370349 -0.670191 0.000000 0.000000 0.000000 22.757596 2.055532 -0.339744 30.671002 -6.042517 -4.274815 -11.465656 24.650839 -1.370875 0.000000 0.000000 0.000000 
-0.001244 0.952610 0.003696 -0.784713 -0.878531 6.637028 0.127421 -0.073246 -0.759397 0.176601 0.317612 -9.313262 1.077308 5.237537 8.410780 0.000000 0.000000 0.000000 1.537971 0.071227 -1.219349 -0.953040 -0.259640 -7.500622 6.714816 10.926877 7.840267 0.000000 0.000000 0.000000 6.905880 0.141708 -3.551941 -1.610011 0.755188 0.555899 -3.159374 1.551660 6.071271 7.578780 -2.484008 -21.332481 0.000000 0.000000 0.000000 -24.094094 -8.639454 2.290445 -32.235206 9.368192 -5.772620 17.044882 -6.611104 -0.690261 0.000000 0.000000 0.000000 22.411490 3.576545 0.492345 31.131049 -7.170788 -4.651402 -11.944194 25.525159 -1.551444 0.000000 0.000000 0.000000 
-0.001768 0.952853 0.005251 -0.797414 -1.296908 6.750903 0.073226 -0.035556 -0.352923 0.139416 0.347524 -10.027377 1.062846 5.291058 8.799717 0.000000 0.000000 0.000000 1.259199 0.057801 -1.036577 -0.101580 -0.290928 -7.568136 7.423458 12.178242 8.202590 0.000000 0.000000 0.000000 6.915379 0.134099 -3.487066 -1.916644 0.902030 0.916913 -2.709497 2.052119 5.101983 7.813083 -2.440047 -22.102778 0.000000 0.000000 0.000000 -24.868176 -9.181084 2.473207 -32.382907 10.793615 -6.049036 17.935112 -5.504705 -0.613830 0.000000 0.000000 0.000000 22.769502 3.279445 0.335051 30.192929 -9.041992 -4.835584 -11.869037 26.003830 -1.570847 0.000000 0.000000 0.000000 
-0.002250 0.952900 0.006524 -0.502395 -1.139607 6.752361 -0.023655 -0.007088 -0.071960 -0.048746 0.353797 -10.114976 0.586703 4.379339 8.511655 0.000000 0.000000 0.000000 0.920474 0.033707 -0.699198 -0.170931 -0.305466 -7.982409 7.295366 12.264054 7.740414 0.000000 0.000000 0.000000 7.007738 0.148821 -3.639596 -1.975777 0.929422 1.162495 -2.844590 1.727729 4.565458 7.754504 -2.504887 -21.493636 0.000000 0.000000 0.000000 -25.507246 -8.843845 2.293844 -31.763930 10.909273 -5.924645 18.632865 -4.604863 -0.526580 0.000000 0.000000 0.000000 22.251731 3.357789 0.319808 30.468210 -9.723609 -4.975907 -12.142665 25.786637 -1.622652 0.000000 0.000000 0.000000 
-0.002621 0.952811 0.007609 -0.307343 -0.645001 6.477292 -0.290952 0.046315 0.409242 0.261651 0.346628 -10.182438 -0.075386 3.119650 8.128864 0.000000 0.000000 0.000000 0.457793 0.016189 -0.349152 0.200124 -0.309936 -7.733323 7.077948 12.239765 7.204342 0.000000 0.000000 0.000000 6.901893 0.128173 -3.413740 -1.835940 0.856837 1.616201 -2.829491 1.506874 4.266413 7.733231 -2.423673 -21.871837 0.000000 0.000000 0.000000 -25.841914 -9.020351 2.364507 -31.776964 10.707305 -5.862399 19.315665 -3.702327 -0.433977 0.000000 0.000000 0.000000 21.912112 3.481670 0.408063 30.523870 -10.038407 -5.036278 -12.747225 24.787887 -1.667457 0.000000 0.000000 0.000000 
-0.002951 0.952901 0.008471 -0.122002 -0.231310 6.339206 -0.382475 0.070453 0.628865 0.237531 0.336009 -9.950101 -0.380857 2.585349 8.057876 0.000000 0.000000 0.000000 0.317977 -0.022900 0.091731 0.095135 -0.321720 -8.091743 7.064389 12.341392 7.080980 0.000000 0.000000 0.000000 6.973333 0.114680 -3.272519 -1.792365 0.833408 1.506567 -2.921808 1.553540 4.351140 7.790834 -2.436503 -21.806888 0.000000 0.000000 0.000000 -25.697938 -8.666182 2.049172 -31.281033 9.966322 -5.577473 19.817134 -3.176613 -0.384626 0.000000 0.000000 0.000000 21.639526 3.141151 0.309140 30.108935 -10.378332 -5.049889 -12.656745 22.984741 -1.495484 0.000000 0.000000 0.000000 
-0.003286 0.952956 0.009147 -0.055682 0.416861 6.059701 -0.385280 0.116901 1.116913 0.429702 0.323271 -9.828887 -0.841915 1.775863 7.952622 0.000000 0.000000 0.000000 0.306405 -0.063106 0.496374 -0.014654 -0.319449 -8.046940 6.879853 12.141473 6.875588 0.000000 0.000000 0.000000 7.040607 0.100769 -3.107950 -1.673526 0.769637 1.648956 -2.978577 1.696586 4.415521 7.693691 -2.359067 -21.642270 0.000000 0.000000 0.000000 -25.824545 -9.042488 2.096446 -30.388232 9.526085 -5.267195 20.155693 -2.754769 -0.348387 0.000000 0.000000 0.000000 21.966359 3.026505 0.382927 29.629553 -10.465102 -5.019292 -12.812085 20.762835 -1.329150 0.000000 0.000000 0.000000 
-0.003614 0.953255 0.009596 -0.049028 1.000722 6.090717 -0.155731 0.124665 1.299355 0.249395 0.327595 -9.958227 -1.194426 1.086815 7.696217 0.000000 0.000000 0.000000 0.362806 -0.091429 0.749611 -0.056791 -0.335014 -8.397702 6.668075 11.822708 6.737983 0.000000 0.000000 0.000000 7.017320 0.114345 -3.284282 -1.544708 0.696415 2.064858 -3.046813 1.711893 4.201004 7.670770 -2.305225 -21.611234 0.000000 0.000000 0.000000 -25.674200 -9.135858 2.020984 -29.597912 9.039589 -4.968171 21.193196 -2.407549 -0.332309 0.000000 0.000000 0.000000 21.938124 3.100636 0.527260 29.413219 -10.961925 -5.085471 -12.795814 18.915469 -1.171430 0.000000 0.000000 0.000000 
-0.004069 0.953555 0.009879 -0.000313 1.434232 5.909990 0.064097 0.131163 1.477719 -0.067086 0.327728 -9.879283 -1.152997 1.080724 7.411154 0.000000 0.000000 0.000000 0.413062 -0.147385 1.264276 -0.237715 -0.346063 -8.743405 6.381175 11.286169 6.636792 0.000000 0.000000 0.000000 6.988117 0.113753 -3.256628 -1.606984 0.722403 2.102522 -3.065033 1.974356 4.442805 7.272422 -2.009436 -21.844113 0.000000 0.000000 0.000000 -25.829927 -9.620086 2.141856 -28.606473 8.448840 -4.634037 21.695581 -2.133664 -0.315437 0.000000 0.000000 0.000000 22.163878 3.072250 0.662730 29.202025 -10.970648 -5.095706 -12.763467 17.104804 -1.012982 0.000000 0.000000 0.000000 
-0.004542 0.953309 0.010084 -0.016297 1.869669 5.850172 0.380984 0.123903 1.560597 -0.385531 0.323588 -9.658376 -1.168642 0.847307 6.850096 0.000000 0.000000 0.000000 0.428383 -0.169256 1.465856 -0.031392 -0.363125 -8.946797 6.029363 10.640304 6.483480 0.000000 0.000000 0.000000 6.933146 0.138447 -3.509777 -1.692534 0.753338 2.563714 -3.074011 2.057146 4.399411 6.946590 -1.802052 -21.804603 0.000000 0.000000 0.000000 -25.781638 -10.030661 2.274946 -27.958107 8.012084 -4.399424 22.162294 -2.116655 -0.331814 0.000000 0.000000 0.000000 22.230562 3.443616 0.978150 29.725398 -10.824461 -5.191320 -12.381504 15.425129 -0.833236 0.000000 0.000000 0.000000 
-0.005152 0.953140 0.010424 -0.032253 2.174710 5.704471 0.461949 0.127524 1.649957 -0.531542 0.309807 -9.116946 -0.850131 1.147942 6.127407 0.000000 0.000000 0.000000 0.668940 -0.209756 1.733211 -0.230393 -0.362246 -9.024372 5.863494 10.368362 6.372456 0.000000 0.000000 0.000000 6.726463 0.162879 -3.738155 -1.681496 0.739358 2.840545 -2.950958 2.122024 4.647634 6.665127 -1.620333 -21.918895 0.000000 0.000000 0.000000 -26.192886 -10.194351 2.295994 -27.166825 8.086465 -4.266924 22.204046 -2.827178 -0.450546 0.000000 0.000000 0.000000 22.476962 3.754375 1.224052 29.947429 -10.396683 -5.180452 -12.314242 14.484457 -0.753562 0.000000 0.000000 0.000000 
-0.005914 0.952675 0.010949 -0.084002 2.188389 5.546921 0.492909 0.134334 1.745724 -0.387850 0.296155 -8.743062 -0.549691 1.537203 5.722223 0.000000 0.000000 0.000000 0.755049 -0.235522 1.930933 -0.160646 -0.362889 -8.993770 5.637832 10.024615 6.126573 0.000000 0.000000 0.000000 6.580129 0.187597 -3.954080 -1.725446 0.759742 2.949191 -2.976160 2.245251 4.835485 6.423033 -1.499716 -21.771848 0.000000 0.000000 0.000000 -26.477623 -10.312682 2.310128 -26.782877 8.659519 -4.300487 22.340266 -3.856147 -0.623252 0.000000 0.000000 0.000000 22.735639 4.318482 1.610106 30.631839 -9.888065 -5.235938 -12.141382 14.444845 -0.729870 0.000000 0.000000 0.000000 
-0.006807 0.952347 0.011524 -0.077061 1.995599 5.446827 0.352028 0.139754 1.728407 -0.106685 0.275968 -8.284744 -0.338776 1.651717 5.084082 0.000000 0.000000 0.000000 0.899985 -0.276115 2.229472 -0.277160 -0.364190 -9.115272 5.476876 9.825000 5.853781 0.000000 0.000000 0.000000 6.343117 0.191670 -3.971827 -1.785680 0.789412 3.150776 -2.843529 2.309935 4.690915 6.410283 -1.491201 -21.806712 0.000000 0.000000 0.000000 -26.596257 -10.154501 2.217825 -26.754978 9.198892 -4.391353 21.819943 -4.961624 -0.776142 0.000000 0.000000 0.000000 23.182625 4.596650 1.755825 30.815145 -9.117570 -5.109066 -12.041823 14.602949 -0.732301 0.000000 0.000000 0.000000 
-0.007861 0.952203 0.011980 -0.044448 1.746438 5.498533 0.175948 0.144610 1.688523 0.241332 0.250858 -7.826499 -0.103960 1.951032 4.766035 0.000000 0.000000 0.000000 0.966916 -0.286300 2.286386 -0.246807 -0.366798 -9.184789 5.249026 9.427456 5.635593 0.000000 0.000000 0.000000 6.170560 0.209810 -4.167103 -1.865161 0.836066 2.962590 -2.981907 2.540363 5.018408 6.201631 -1.324710 -22.125254 0.000000 0.000000 0.000000 -26.978804 -10.508610 2.381181 -26.643530 10.270080 -4.565789 21.503176 -5.832745 -0.897271 0.000000 0.000000 0.000000 23.541354 4.919140 2.011899 31.156878 -8.438723 -5.064910 -12.053875 15.624431 -0.800492 0.000000 0.000000 0.000000 
